<svg width="662" height="100" viewBox="0 0 662 100" fill="none" xmlns="http://www.w3.org/2000/svg">
<path d="M116.949 63.6723C116.949 45.6497 127.119 34.4633 142.938 34.4633C158.757 34.4633 168.362 44.6327 168.362 63.2203C168.362 81.8079 168.362 64.7457 168.362 65.4237C168.362 66.2712 167.627 66.9491 166.723 66.9491H134.915L127.345 66.8361C127.91 77.5706 134.011 83.6158 143.503 83.6158C152.994 83.6158 155.763 80.565 157.853 74.5198C158.136 73.7853 158.87 73.2768 159.661 73.3898L165.876 74.0678C166.949 74.1808 167.627 75.2542 167.345 76.2712C163.955 86.9491 155.141 92.7119 143.616 92.7119C132.09 92.7119 117.062 82.4294 117.062 63.7288L116.949 63.6723ZM135.141 58.6441H150.508L158.192 58.87C157.401 48.2486 151.073 43.4463 142.938 43.4463C134.802 43.4463 128.305 48.2486 127.571 58.87L135.141 58.6441Z" fill="#0A0A0A"/>
<path d="M184.35 74.0678V44.5198L178.192 44.8588H174.52C173.559 44.8588 172.825 44.0678 172.825 43.1639V37.2882C172.825 36.3277 173.616 35.5932 174.52 35.5932H178.192L184.576 35.9322L184.35 30.226V20.9605C184.35 20 185.141 19.2656 186.045 19.2656H193.277C194.237 19.2656 194.972 20.0565 194.972 20.9605V30.226L194.633 35.9322L200.678 35.5932H207.345C208.305 35.5932 209.04 36.3842 209.04 37.2882V43.1639C209.04 44.1243 208.249 44.8588 207.345 44.8588H200.678L194.972 44.5198V73.5029C194.972 80.678 198.418 82.7684 202.994 82.7684C207.571 82.7684 205.424 82.7119 207.119 82.5424C208.136 82.4294 208.983 83.2204 208.983 84.2373V89.9435C208.983 90.791 208.362 91.5255 207.514 91.6384C205.141 91.9774 203.446 92.0904 201.299 92.0904C189.604 92.0904 184.35 85.7062 184.35 74.0678Z" fill="#0A0A0A"/>
<path d="M215.254 63.6723C215.254 46.6666 225.085 34.4633 241.469 34.4633C257.853 34.4633 263.559 41.6949 265.706 54.3503C265.876 55.3107 265.198 56.2712 264.181 56.3277L257.401 56.9491C256.554 57.0056 255.763 56.4407 255.593 55.5932C253.955 47.4011 248.531 43.4463 241.356 43.4463C234.181 43.4463 225.65 51.2994 225.65 63.7288C225.65 76.1582 231.751 83.6723 241.582 83.6723C251.412 83.6723 254.35 79.887 256.045 71.5254C256.215 70.6779 257.006 70.113 257.853 70.1695L264.576 70.7909C265.537 70.9039 266.271 71.8079 266.102 72.7683C264.124 85.4237 254.802 92.7683 241.582 92.7683C228.362 92.7683 215.254 80.6779 215.254 63.7853V63.6723Z" fill="#0A0A0A"/>
<path d="M275.141 89.8305V8.47458C275.141 7.51413 275.876 6.77966 276.836 6.77966H284.124C285.085 6.77966 285.819 7.57062 285.819 8.47458V39.435L285.028 46.2147H286.61C291.13 38.8701 297.74 35.0847 306.045 35.0847C314.35 35.0847 324.915 42.5424 324.915 57.4011V89.8305C324.915 90.791 324.181 91.5254 323.22 91.5254H315.932C314.972 91.5254 314.237 90.7345 314.237 89.8305V59.4915C314.237 48.1356 309.04 44.4068 301.808 44.4068C294.576 44.4068 285.819 50.8475 285.819 64.1243V89.774C285.819 90.7345 285.085 91.4689 284.124 91.4689H276.836C275.876 91.4689 275.141 90.7345 275.141 89.774V89.8305Z" fill="#0A0A0A"/>
<path d="M333.333 63.6723C333.333 45.6497 343.503 34.4633 359.322 34.4633C375.141 34.4633 384.746 44.6327 384.746 63.2203C384.746 81.8079 384.746 65.9322 384.633 66.8926H351.299L343.729 66.7796C344.294 77.5141 350.396 83.5593 359.887 83.5593C369.379 83.5593 372.147 80.5085 374.237 74.4633C374.52 73.7288 375.254 73.2203 376.045 73.3333L382.26 74.0113C383.333 74.1243 384.011 75.1977 383.729 76.2147C380.339 86.8926 371.525 92.6553 360 92.6553C348.475 92.6553 333.446 82.3729 333.446 63.6723H333.333ZM351.525 58.644H366.893L374.576 58.87C373.785 48.2486 367.458 43.4463 359.322 43.4463C351.186 43.4463 344.689 48.2486 343.955 58.87L351.525 58.644Z" fill="#0A0A0A"/>
<path d="M392.09 63.6723C392.09 45.7627 402.486 35.0283 415.593 35.0283C428.7 35.0283 430.452 40.3955 433.164 45.8192H434.746L434.068 39.1525V8.47458C434.068 7.51413 434.859 6.77966 435.763 6.77966H442.994C443.955 6.77966 444.689 7.51413 444.689 8.47458V89.7175C444.689 90.678 443.898 91.4124 442.994 91.4124H435.763C434.802 91.4124 434.068 90.678 434.068 89.7175V87.8531L434.746 81.5254H433.164C430.621 87.1186 424.802 92.0904 415.593 92.0904C402.486 92.0904 392.09 81.8644 392.09 63.6723ZM433.898 63.6723C433.898 51.7514 427.74 44.1808 418.475 44.1808C409.209 44.1808 403.164 51.2994 403.164 63.6723C403.164 76.0452 409.661 82.9379 418.475 82.9379C427.288 82.9379 433.898 75.4802 433.898 63.6723Z" fill="#0A0A0A"/>
<path fill-rule="evenodd" clip-rule="evenodd" d="M11.8644 6.21472C10 6.21472 8.47461 7.74015 8.47461 9.60455V89.8305C8.47461 91.695 10 93.2204 11.8644 93.2204H92.0904C93.9548 93.2204 95.4803 91.695 95.4803 89.8305V9.60455C95.4803 7.74015 93.9548 6.21472 92.0904 6.21472H11.8644ZM24.3503 79.661H80.2825C81.1865 79.661 81.6949 78.6441 81.0735 78.0226L73.9548 70.678C72.7119 69.2091 70.791 68.3616 68.8136 68.3616H24.3503C23.7288 68.3616 23.1639 68.8701 23.1639 69.4916V78.5311C23.1639 79.1526 23.6723 79.661 24.3503 79.661Z" fill="#0A0A0A"/>
<rect x="477.107" y="6.5" width="184" height="87" rx="43.5" fill="#AC9033"/>
<path d="M520.507 64V36H526.707C529.241 36 531.454 36.5467 533.347 37.64C535.241 38.7333 536.707 40.3333 537.747 42.44C538.787 44.52 539.307 47.04 539.307 50C539.307 52.96 538.787 55.4933 537.747 57.6C536.707 59.68 535.241 61.2667 533.347 62.36C531.454 63.4533 529.241 64 526.707 64H520.507ZM526.707 61C528.521 61 530.121 60.5867 531.507 59.76C532.894 58.9067 533.974 57.6533 534.747 56C535.521 54.3467 535.907 52.3467 535.907 50C535.907 47.6533 535.521 45.6533 534.747 44C533.974 42.3467 532.894 41.1067 531.507 40.28C530.121 39.4267 528.521 39 526.707 39H523.907V61H526.707ZM555.492 64.4C553.492 64.4 551.732 63.88 550.212 62.84C548.692 61.8 547.492 60.2133 546.612 58.08C545.732 55.92 545.292 53.2267 545.292 50C545.292 46.7733 545.732 44.0933 546.612 41.96C547.492 39.8 548.692 38.2 550.212 37.16C551.732 36.12 553.492 35.6 555.492 35.6C557.492 35.6 559.252 36.12 560.772 37.16C562.292 38.2 563.492 39.8 564.372 41.96C565.252 44.0933 565.692 46.7733 565.692 50C565.692 53.2267 565.252 55.92 564.372 58.08C563.492 60.2133 562.292 61.8 560.772 62.84C559.252 63.88 557.492 64.4 555.492 64.4ZM555.492 61.4C557.705 61.4 559.385 60.4267 560.532 58.48C561.705 56.5333 562.292 53.7067 562.292 50C562.292 46.2933 561.705 43.4667 560.532 41.52C559.385 39.5733 557.705 38.6 555.492 38.6C553.278 38.6 551.585 39.5733 550.412 41.52C549.265 43.4667 548.692 46.2933 548.692 50C548.692 53.7067 549.265 56.5333 550.412 58.48C551.585 60.4267 553.278 61.4 555.492 61.4ZM582.076 64.4C580.076 64.4 578.316 63.88 576.796 62.84C575.276 61.8 574.076 60.2133 573.196 58.08C572.316 55.92 571.876 53.2267 571.876 50C571.876 46.7733 572.316 44.0933 573.196 41.96C574.076 39.8 575.276 38.2 576.796 37.16C578.316 36.12 580.076 35.6 582.076 35.6C584.45 35.6 586.436 36.2667 588.036 37.6C589.636 38.9333 590.796 40.8667 591.516 43.4H588.116C587.583 41.8533 586.81 40.6667 585.796 39.84C584.783 39.0133 583.543 38.6 582.076 38.6C580.023 38.6 578.37 39.5067 577.116 41.32C575.89 43.1333 575.276 46.0267 575.276 50C575.276 53.9733 575.89 56.8667 577.116 58.68C578.37 60.4933 580.023 61.4 582.076 61.4C583.65 61.4 584.983 60.8933 586.076 59.88C587.196 58.8667 587.996 57.3067 588.476 55.2H591.876C591.183 58.32 589.996 60.64 588.316 62.16C586.636 63.6533 584.556 64.4 582.076 64.4ZM608.661 64.4C605.807 64.4 603.487 63.6933 601.701 62.28C599.941 60.8667 598.927 58.9067 598.661 56.4H602.061C602.327 58 603.034 59.24 604.181 60.12C605.354 60.9733 606.847 61.4 608.661 61.4C610.501 61.4 611.927 60.9733 612.941 60.12C613.954 59.24 614.461 58 614.461 56.4C614.461 55.3867 614.181 54.5733 613.621 53.96C613.061 53.3467 612.367 52.88 611.541 52.56C610.741 52.2133 609.594 51.84 608.101 51.44C606.261 50.96 604.767 50.4667 603.621 49.96C602.474 49.4533 601.487 48.6667 600.661 47.6C599.861 46.5067 599.461 45.04 599.461 43.2C599.461 41.7067 599.821 40.3867 600.541 39.24C601.287 38.0933 602.327 37.2 603.661 36.56C604.994 35.92 606.527 35.6 608.261 35.6C610.794 35.6 612.861 36.24 614.461 37.52C616.061 38.7733 616.994 40.5333 617.261 42.8H613.861C613.647 41.52 613.034 40.5067 612.021 39.76C611.034 38.9867 609.781 38.6 608.261 38.6C606.607 38.6 605.287 39.0133 604.301 39.84C603.341 40.6667 602.861 41.7867 602.861 43.2C602.861 44.2933 603.154 45.1733 603.741 45.84C604.327 46.5067 605.047 47.0133 605.901 47.36C606.754 47.7067 607.954 48.0933 609.501 48.52C611.287 49 612.741 49.4933 613.861 50C614.981 50.48 615.927 51.24 616.701 52.28C617.474 53.2933 617.861 54.6667 617.861 56.4C617.861 57.9733 617.474 59.3733 616.701 60.6C615.954 61.8 614.874 62.7333 613.461 63.4C612.074 64.0667 610.474 64.4 608.661 64.4Z" fill="white"/>
</svg>
