<svg width="540" height="540" viewBox="0 0 540 540" fill="none" xmlns="http://www.w3.org/2000/svg">
<rect width="540" height="540" rx="24" fill="white"/>
<path fill-rule="evenodd" clip-rule="evenodd" d="M91.807 77C83.5412 77 76.7783 83.7519 76.7783 92.0042V447.103C76.7783 455.355 83.5412 462.107 91.807 462.107H447.485C455.751 462.107 462.514 455.355 462.514 447.103V92.0042C462.514 83.7519 455.751 77 447.485 77H91.807ZM147.162 402.091H395.135C399.143 402.091 401.397 397.589 398.642 394.839L367.082 362.33C361.571 355.828 353.055 352.077 344.288 352.077H147.162C144.407 352.077 141.902 354.327 141.902 357.078V397.089C141.902 399.84 144.157 402.091 147.162 402.091Z" fill="#0A0A0A"/>
</svg>
